<svg width="316" height="51" viewBox="0 0 316 51" fill="none" xmlns="http://www.w3.org/2000/svg">
<path d="M78.1671 1.0529L71.0006 27.5359L63.8106 1.0529H42.7254V10.8315C40.1933 2.27344 31.2606 0.123293 22.9843 0.00265744C12.9028 -0.117978 2.32891 3.8488 1.93816 15.9549H15.8882C15.8882 12.3004 18.9752 10.207 22.4529 10.2567C26.72 10.2283 28.6894 11.8817 28.791 14.4647C28.6425 16.7 27.1889 18.2612 22.4842 18.2612H17.7951V27.0534H22.0543C24.4692 27.0534 27.8375 28.2456 27.9704 31.375C28.1345 35.1005 25.2742 36.7468 21.7652 36.7752C15.4896 36.5694 14.4736 32.1839 14.4736 28.423H0C0.0625211 30.9563 -0.625211 47.4763 22.07 47.3556C32.9408 47.4479 40.5293 43.2966 42.7566 37.5771V46.3409H57.0427V17.7787L64.7641 46.348H77.2449L84.9975 17.807V46.3764H99.2445V1.0529H78.1671ZM42.7645 27.4721C40.9904 24.1298 38.4896 22.6679 37.075 22.2067C40.0292 21.0145 41.5844 19.3966 42.7645 16.1678V27.4721Z" fill="#FF0000"/>
<path d="M125.293 6.16244C125.098 5.19911 124.222 3.68327 121.766 3.68327C119.936 3.68327 118.732 4.74577 118.732 5.91452C118.732 6.87786 119.412 7.64994 120.836 7.89786L123.541 8.37244C127.068 8.99578 128.961 11.0783 128.961 13.5504C128.961 16.2562 126.466 18.9762 121.954 18.9762C116.808 18.9762 114.541 15.9729 114.236 13.4724L117.739 12.6295C117.903 14.372 119.24 15.9304 121.977 15.9304C124.003 15.9304 125.121 15.0095 125.121 13.7699C125.121 12.757 124.277 11.9566 122.767 11.6874L120.054 11.1916C116.965 10.6249 114.971 8.81161 114.971 6.16244C114.971 3.03869 118.06 0.658691 121.727 0.658691C126.435 0.658691 128.241 3.23702 128.679 5.22744L125.293 6.16244Z" fill="black"/>
<path d="M134.271 12.5091C134.271 14.7191 135.858 15.9587 137.719 15.9587C139.58 15.9587 140.511 14.8395 140.808 13.9045L144.007 14.8678C143.404 16.9007 141.301 18.9832 137.719 18.9832C133.747 18.9832 130.626 16.2562 130.626 12.5162C130.626 8.74783 133.692 6.04199 137.602 6.04199C141.27 6.04199 143.35 8.09616 143.921 10.1574L140.66 11.1491C140.331 10.1362 139.487 9.09491 137.68 9.09491C135.835 9.08783 134.271 10.3062 134.271 12.5091Z" fill="black"/>
<path d="M148.253 0.368286C149.512 0.368286 150.497 1.28912 150.497 2.42245C150.497 3.51329 149.512 4.42704 148.253 4.42704C147.025 4.42704 146.008 3.51329 146.008 2.42245C146.008 1.28204 147.025 0.368286 148.253 0.368286ZM146.446 18.6079V6.41745H150.083V18.6079H146.446Z" fill="black"/>
<path d="M165.903 15.1157C165.222 17.2195 163.088 18.9762 159.772 18.9762C156.081 18.9762 152.82 16.5749 152.82 12.4595C152.82 8.56366 155.995 6.03491 159.443 6.03491C163.604 6.03491 166.098 8.44325 166.098 12.3532C166.098 12.8278 166.043 13.3237 166.043 13.3732H156.409C156.487 14.9812 157.997 16.1499 159.803 16.1499C161.5 16.1499 162.431 15.3849 162.869 14.2941L165.903 15.1157ZM162.509 11.1207C162.454 9.9095 161.578 8.7195 159.498 8.7195C157.613 8.7195 156.573 10.0087 156.487 11.1207H162.509Z" fill="black"/>
<path d="M172.3 18.6079H168.663V6.4175H172.19V7.92625C173.011 6.65834 174.622 6.09875 176.077 6.09875C179.416 6.09875 180.949 8.25209 180.949 10.9296V18.6079H177.312V11.4892C177.312 10.1292 176.577 9.05959 174.825 9.05959C173.238 9.05959 172.307 10.1788 172.307 11.5883V18.6079H172.3Z" fill="black"/>
<path d="M186.861 12.5091C186.861 14.7191 188.448 15.9587 190.309 15.9587C192.17 15.9587 193.101 14.8395 193.398 13.9045L196.597 14.8678C195.994 16.9007 193.891 18.9832 190.301 18.9832C186.329 18.9832 183.216 16.2562 183.216 12.5162C183.216 8.74783 186.282 6.04199 190.192 6.04199C193.859 6.04199 195.94 8.09616 196.51 10.1574L193.25 11.1491C192.921 10.1362 192.077 9.09491 190.27 9.09491C188.425 9.08783 186.861 10.3062 186.861 12.5091Z" fill="black"/>
<path d="M211.134 15.1157C210.446 17.2195 208.311 18.9762 205.003 18.9762C201.312 18.9762 198.051 16.5749 198.051 12.4595C198.051 8.56366 201.226 6.03491 204.675 6.03491C208.835 6.03491 211.322 8.44325 211.322 12.3532C211.322 12.8278 211.267 13.3237 211.267 13.3732H201.633C201.719 14.9812 203.22 16.1499 205.027 16.1499C206.723 16.1499 207.654 15.3849 208.092 14.2941L211.134 15.1157ZM207.74 11.1207C207.685 9.9095 206.809 8.7195 204.729 8.7195C202.845 8.7195 201.805 10.0087 201.719 11.1207H207.74Z" fill="black"/>
<path d="M216.029 14.2728C217.421 14.2728 218.547 15.2857 218.547 16.5324C218.547 17.7649 217.421 18.7849 216.029 18.7849C214.661 18.7849 213.543 17.7649 213.543 16.5324C213.543 15.2857 214.661 14.2728 216.029 14.2728Z" fill="black"/>
<path d="M127.186 41.8908H119.303L117.692 45.907H113.696L121.141 28.3333H125.52L132.902 45.907H128.797L127.186 41.8908ZM120.562 38.767H125.927L123.244 32.1228L120.562 38.767Z" fill="black"/>
<path d="M134.927 50.6175V33.7096H138.462V35.1971C139.064 34.255 140.566 33.4333 142.591 33.4333C146.532 33.4333 148.8 36.1604 148.8 39.78C148.8 43.4704 146.259 46.2046 142.45 46.2046C140.589 46.2046 139.221 45.5317 138.564 44.7171V50.6175H134.927ZM141.879 36.3871C140.018 36.3871 138.517 37.655 138.517 39.8083C138.517 41.9617 140.018 43.2508 141.879 43.2508C143.741 43.2508 145.219 41.99 145.219 39.8083C145.211 37.6479 143.741 36.3871 141.879 36.3871Z" fill="black"/>
<path d="M151.209 50.6175V33.7096H154.744V35.1971C155.346 34.255 156.847 33.4333 158.872 33.4333C162.814 33.4333 165.082 36.1604 165.082 39.78C165.082 43.4704 162.54 46.2046 158.732 46.2046C156.871 46.2046 155.502 45.5317 154.853 44.7171V50.6175H151.209ZM158.161 36.3871C156.3 36.3871 154.798 37.655 154.798 39.8083C154.798 41.9617 156.3 43.2508 158.161 43.2508C160.022 43.2508 161.5 41.99 161.5 39.8083C161.5 37.6479 160.022 36.3871 158.161 36.3871Z" fill="black"/>
<path d="M167.545 45.9V27.9579H171.189V45.9H167.545Z" fill="black"/>
<path d="M176.734 27.6604C177.993 27.6604 178.978 28.5812 178.978 29.7146C178.978 30.8054 177.993 31.7191 176.734 31.7191C175.498 31.7191 174.489 30.8054 174.489 29.7146C174.489 28.5812 175.506 27.6604 176.734 27.6604ZM174.935 45.9V33.7096H178.571V45.9H174.935Z" fill="black"/>
<path d="M194.493 42.4079C193.813 44.5187 191.678 46.2754 188.362 46.2754C184.671 46.2754 181.41 43.8741 181.41 39.7587C181.41 35.8629 184.585 33.3341 188.034 33.3341C192.194 33.3341 194.681 35.7424 194.681 39.6524C194.681 40.127 194.626 40.6229 194.626 40.6724H184.999C185.085 42.2804 186.587 43.4491 188.393 43.4491C190.09 43.4491 191.021 42.6841 191.459 41.5933L194.493 42.4079ZM191.107 38.4199C191.052 37.2087 190.176 36.0187 188.096 36.0187C186.204 36.0187 185.164 37.3079 185.085 38.4199H191.107Z" fill="black"/>
<path d="M210.368 43.6971C210.368 44.5187 210.422 45.4112 210.477 45.9071H206.997C206.942 45.6591 206.864 45.0641 206.864 44.4975C206.262 45.4608 204.894 46.2116 203.087 46.2116C199.255 46.2116 196.518 43.4846 196.518 39.7871C196.518 36.2171 199.177 33.4121 202.978 33.4121C205.3 33.4121 206.395 34.2833 206.778 34.9279V27.9579H210.368V43.6971ZM203.525 43.2508C205.386 43.2508 206.833 41.9616 206.833 39.7587C206.833 37.5841 205.378 36.3658 203.525 36.3658C201.664 36.3658 200.186 37.6054 200.186 39.7871C200.186 41.9616 201.609 43.2508 203.525 43.2508Z" fill="black"/>
<path d="M224.678 33.7096H227.384V36.635H224.678V41.735C224.678 42.8046 225.226 43.1516 226.266 43.1516C226.704 43.1516 227.196 43.1021 227.384 43.0525V45.7796C227.056 45.9 226.399 46.0771 225.335 46.0771C222.708 46.0771 221.065 44.6604 221.065 42.3016V36.635H218.633V33.7096H219.322C220.745 33.7096 221.402 32.8666 221.402 31.7758V30.0616H224.686V33.7096H224.678Z" fill="black"/>
<path d="M243.314 39.8083C243.314 43.5483 240.279 46.2754 236.252 46.2754C232.233 46.2754 229.198 43.5483 229.198 39.8083C229.198 36.0399 232.233 33.3341 236.252 33.3341C240.272 33.3341 243.314 36.0399 243.314 39.8083ZM239.677 39.8083C239.677 37.4991 238.035 36.3374 236.252 36.3374C234.477 36.3374 232.835 37.4991 232.835 39.8083C232.835 42.0891 234.477 43.272 236.252 43.272C238.035 43.272 239.677 42.1104 239.677 39.8083Z" fill="black"/>
<path d="M251.306 45.8999V28.3333H255.083V42.6274H263.724V45.8999H251.306Z" fill="black"/>
<path d="M268.025 27.6604C269.284 27.6604 270.262 28.5812 270.262 29.7146C270.262 30.8054 269.276 31.7191 268.025 31.7191C266.789 31.7191 265.781 30.8054 265.781 29.7146C265.773 28.5812 266.789 27.6604 268.025 27.6604ZM266.211 45.9V33.7096H269.855V45.9H266.211Z" fill="black"/>
<path d="M278.441 32.3708V33.7095H281.476V36.5358H278.441V45.8999H274.774V36.5358H272.529V33.7095H274.774V32.3212C274.774 29.5658 276.69 27.7878 279.669 27.7878C280.435 27.7878 281.178 27.9083 281.476 28.0358V30.8124C281.28 30.7558 280.928 30.6849 280.326 30.6849C279.513 30.6849 278.441 31.0108 278.441 32.3708Z" fill="black"/>
<path d="M295.411 42.4079C294.723 44.5187 292.588 46.2754 289.28 46.2754C285.589 46.2754 282.328 43.8741 282.328 39.7587C282.328 35.8629 285.495 33.3341 288.951 33.3341C293.112 33.3341 295.599 35.7424 295.599 39.6524C295.599 40.127 295.544 40.6229 295.544 40.6724H285.909C285.988 42.2804 287.497 43.4491 289.303 43.4491C291 43.4491 291.931 42.6841 292.369 41.5933L295.411 42.4079ZM292.017 38.4199C291.962 37.2087 291.086 36.0187 289.006 36.0187C287.122 36.0187 286.082 37.3079 285.995 38.4199H292.017Z" fill="black"/>
<path d="M300.306 41.572C301.698 41.572 302.824 42.5849 302.824 43.8245C302.824 45.0641 301.698 46.0841 300.306 46.0841C298.938 46.0841 297.819 45.0641 297.819 43.8245C297.819 42.5849 298.938 41.572 300.306 41.572Z" fill="black"/>
<path d="M308.807 33.6953V28.3333H310.378L312.115 32.222L313.811 28.3333H315.391V33.6953H314.257V29.9695L312.592 33.6953H311.598L309.933 29.9766V33.6953H308.807Z" fill="black"/>
<path d="M302.824 28.3333H307.735V29.332H305.858V33.6953H304.693V29.332H302.824V28.3333Z" fill="black"/>
</svg>
